<svg version="1.2" xmlns="http://www.w3.org/2000/svg" viewBox="0 0 1552 1552" width="1552" height="1552">
	<title>P_G_Logo_RGB</title>
	<defs>
		<radialGradient id="g1" cx="0" cy="0" r="1" gradientUnits="userSpaceOnUse" gradientTransform="matrix(1449.208,0,0,1449.208,329.146,302.015)">
			<stop offset="0" stop-color="#00a1df"/>
			<stop offset=".13" stop-color="#0092d7"/>
			<stop offset=".37" stop-color="#006cc1"/>
			<stop offset=".62" stop-color="#003da6"/>
			<stop offset=".73" stop-color="#043799"/>
			<stop offset=".93" stop-color="#102777"/>
			<stop offset="1" stop-color="#152169"/>
		</radialGradient>
		<radialGradient id="g2" cx="0" cy="0" r="1" gradientUnits="userSpaceOnUse" gradientTransform="matrix(2402.885,0,0,2402.885,223.645,119.656)">
			<stop offset=".02" stop-color="#ffffff"/>
			<stop offset=".03" stop-color="#fbfeff"/>
			<stop offset=".09" stop-color="#bae7f9"/>
			<stop offset=".14" stop-color="#87d5f4"/>
			<stop offset=".19" stop-color="#63c9f1"/>
			<stop offset=".23" stop-color="#4cc1ef"/>
			<stop offset=".26" stop-color="#44beee"/>
			<stop offset=".28" stop-color="#37b8eb"/>
			<stop offset=".35" stop-color="#19ace5"/>
			<stop offset=".41" stop-color="#07a4e0"/>
			<stop offset=".45" stop-color="#00a1df"/>
			<stop offset=".79" stop-color="#0045ab"/>
			<stop offset=".82" stop-color="#003da6"/>
			<stop offset=".96" stop-color="#0059b6"/>
		</radialGradient>
		<clipPath clipPathUnits="userSpaceOnUse" id="cp1">
			<path d=""/>
		</clipPath>
		<radialGradient id="g3" cx="0" cy="0" r="1" gradientUnits="userSpaceOnUse" gradientTransform="matrix(976.315,0,0,976.315,603.682,624.59)">
			<stop offset=".32" stop-color="#44beee" stop-opacity="0"/>
			<stop offset=".48" stop-color="#2b99d9" stop-opacity=".27"/>
			<stop offset=".67" stop-color="#1476c6" stop-opacity=".58"/>
			<stop offset=".82" stop-color="#0561ba" stop-opacity=".84"/>
			<stop offset=".92" stop-color="#0059b6" stop-opacity="1"/>
		</radialGradient>
	</defs>
	<style>
		.s0 { fill: url(#g1) } 
		.s1 { fill: url(#g2) } 
		.s2 { fill: url(#g3) } 
		.s3 { fill: #ffffff } 
	</style>
	<path fill-rule="evenodd" class="s0" d="m776 1552c-429.1 0-776-346.9-776-776 0-429.1 346.9-776 776-776 429.1 0 776 346.9 776 776 0 429.1-346.9 776-776 776z"/>
	<path class="s1" d="m206.1 775.8c0-355.5 224.4-658.5 539.3-775.2-414.3 16.2-745.4 357-745.4 775.4 0 418.8 331.7 760 746.7 775.4-315.4-116.4-540.6-419.7-540.6-775.6z"/>
	<g id="Clip-Path" clip-path="url(#cp1)">
		<path class="s2" d="m206.1 775.8c0-355.5 224.4-658.5 539.3-775.2-414.3 16.2-745.4 357-745.4 775.4 0 418.8 331.7 760 746.7 775.4-315.4-116.4-540.6-419.7-540.6-775.6z"/>
	</g>
	<g>
		<path class="s3" d="m762.9 702.1c51.5-127-44.9-161.5-107.6-161.5h-207.8c17.2 11.9 14.4 27.6 11 37.3l-121.2 386.9c-4.7 15.3-22.8 31.5-32.5 33.9h168.1c-9.2-1.8-22.4-14.9-17.6-32.8l43.9-139.9c0.2 0 202.4 27.4 263.7-123.9zm-163.4-125.9c21.9 0 82.9 3 43.5 118.3-41.2 121.2-132.6 96.2-132.6 96.2l67.3-214.5z"/>
		<path class="s3" d="m897.4 998.9h113.1c-36.2-11.7-89.6-45.9-111-70.3 17.3-18.7 38.6-42.5 42.5-90.5h-58.7c0 0 11.3 6.4 11.3 20.2 0 12.8-5.2 30.4-15.1 42.7-17.3-25.4-35.6-54.5-42.1-97.2 23.1-11.4 55.4-23.9 81.1-46.3 24.3-21.4 29.9-41.6 30.4-54.8v-1.7c0-13.8-5.4-26.7-15.3-36.4-17.1-16.9-43.8-23.8-72-18.6-22.7 4.3-41.8 16.4-51.5 25.2-34.1 32.2-38.4 85-38.4 108.9 0 5.8 0.2 10.1 0.4 12.7-1.9 0.9-5.4 2.2-5.4 2.2-25 9.2-91.6 26.9-115.3 81.7-3 6.9-7.3 22-7.3 39.4 0 15.1 3.2 31.9 12.9 47.2 16.8 26.3 45.3 42.9 91 42.1 49.6-0.9 98.5-34.8 107.1-41 8.4 8 30.6 28.9 42.3 34.5zm0-306.1c-5.9 36.9-53.7 74.1-65.4 79.1-2.1-20.7-1-53.5 16.2-80.2 11.4-17.7 26.7-25.4 39-21.1 9.9 3.4 11 12.5 10.2 22.2zm-66.4 246.6c-6.7 4.1-33 17.5-57.6 19.8-22.8 2.2-60.8-6.7-60.6-52.4 0-39 42.5-67.6 65.6-77.6 9.2 37.8 30.1 80.4 52.6 110.2z"/>
		<path class="s3" d="m1241.2 576.6c67.2-16.2 122.6 36.4 127.6 40.1l19.2-61c-26.6-8-219.5-73.3-355.9 82.3-83.9 95.8-104.3 291.9 1.9 344.5 113.8 56.3 239.5-8.6 248.8-13.1l51.9-165.6c5.6-20 18.3-33 40.8-41.4h-180.7c26.3 11 24.4 30.8 22.4 39l-51.9 165.6c-6.9 1.3-152.2 37.5-70.9-216.7 17.9-54.5 66.8-154.5 146.8-173.7z"/>
	</g>
</svg>